<svg width="95" height="39" viewBox="0 0 95 39" fill="none" xmlns="http://www.w3.org/2000/svg">
<g clip-path="url(#clip0_6259_24561)">
<path d="M10.5013 6.9193V8.40914H10.4438C9.86815 7.6204 8.57301 6.4519 6.41445 6.4519C2.64417 6.4519 0.226581 9.49 0.226581 13.8135C0.226581 18.1369 2.64417 21.175 6.41445 21.175C8.57301 21.175 9.86815 20.0065 10.4438 19.2178H10.5013V20.0941C10.5013 22.5772 9.81058 23.6873 7.73837 23.6873C6.12664 23.6873 5.40712 23.0154 5.11932 22.1974H0.514388C1.03244 24.5929 3.191 27.0467 7.85349 27.0467C12.3145 27.0467 15.1062 25.3524 15.1062 20.4155V6.9193H10.5013ZM7.62324 17.6695C5.75249 17.6695 4.83151 16.2381 4.83151 13.8135C4.83151 11.3888 5.75249 9.95741 7.62324 9.95741C9.49399 9.95741 10.415 11.3888 10.415 13.8135C10.415 16.2381 9.49399 17.6695 7.62324 17.6695ZM3.82441 33.5668C2.71624 33.3084 1.86264 33.2476 1.86264 32.4572C1.86264 31.91 2.3718 31.5452 3.31525 31.5452C4.54323 31.5452 4.84274 32.1684 4.94757 32.7764H6.47505C6.37023 31.4236 5.38185 30.2836 3.30028 30.2836C1.38343 30.2836 0.27525 31.302 0.27525 32.5788C0.27525 34.342 1.92254 34.5852 3.13555 34.874C4.2587 35.1476 5.1722 35.2236 5.1722 36.1964C5.1722 36.6828 4.70796 37.23 3.61476 37.23C1.99742 37.23 1.63801 36.5156 1.56313 35.6796H0.0356445C0.110521 37.3212 1.17377 38.4916 3.64471 38.4916C5.50166 38.4916 6.75959 37.5644 6.75959 36.0748C6.75959 34.2204 5.2321 33.9012 3.82441 33.5668ZM11.3738 38.4916C8.9777 38.4916 7.52508 36.8044 7.52508 34.3876C7.52508 31.9708 8.9777 30.2836 11.3738 30.2836C13.7698 30.2836 15.2224 31.9708 15.2224 34.3876C15.2224 36.8044 13.7698 38.4916 11.3738 38.4916ZM11.3738 37.1844C12.8713 37.1844 13.65 35.9836 13.65 34.3876C13.65 32.7764 12.8713 31.5908 11.3738 31.5908C9.87622 31.5908 9.0975 32.7764 9.0975 34.3876C9.0975 35.9836 9.87622 37.1844 11.3738 37.1844ZM16.3391 27.3956V38.2636H17.9265V27.3956H16.3391ZM24.4853 30.4964V35.2236C24.4853 36.3788 23.7066 37.1236 22.4934 37.1236C21.4152 37.1236 20.9809 36.4548 20.9809 35.406V30.4964H19.3935V35.862C19.3935 37.6404 20.5167 38.4764 21.9393 38.4764C23.2572 38.4764 24.051 37.8684 24.4553 37.2604H24.4853V38.2636H26.0577V30.4964H24.4853ZM31.2092 31.8036V30.4964H29.7718V28.0492H28.1844V30.4964H27.0763V31.8036H28.1844V36.1508C28.1844 37.7924 28.8733 38.37 30.1312 38.37C30.5503 38.37 30.895 38.3244 31.2092 38.2484V36.9412C30.1911 37.002 29.7718 36.8956 29.7718 36.014V31.8036H31.2092ZM33.2358 29.1892C33.7 29.1892 34.1343 28.8852 34.1343 28.338C34.1343 27.7908 33.7 27.502 33.2358 27.502C32.8015 27.502 32.3523 27.7908 32.3523 28.338C32.3523 28.8852 32.8015 29.1892 33.2358 29.1892ZM32.4571 30.4964V38.2636H34.0295V30.4964H32.4571ZM39.0725 38.4916C36.6764 38.4916 35.2238 36.8044 35.2238 34.3876C35.2238 31.9708 36.6764 30.2836 39.0725 30.2836C41.4685 30.2836 42.9211 31.9708 42.9211 34.3876C42.9211 36.8044 41.4685 38.4916 39.0725 38.4916ZM39.0725 37.1844C40.57 37.1844 41.3487 35.9836 41.3487 34.3876C41.3487 32.7764 40.57 31.5908 39.0725 31.5908C37.5749 31.5908 36.7962 32.7764 36.7962 34.3876C36.7962 35.9836 37.5749 37.1844 39.0725 37.1844ZM48.126 30.2836C46.8082 30.2836 46.0145 30.8916 45.6101 31.4996H45.5802V30.4964H44.0078V38.2636H45.5802V33.5364C45.5802 32.3812 46.3589 31.6364 47.5719 31.6364C48.6502 31.6364 49.0844 32.3052 49.0844 33.354V38.2636H50.6718V32.898C50.6718 31.1196 49.5487 30.2836 48.126 30.2836ZM55.4192 33.5668C54.3111 33.3084 53.4575 33.2476 53.4575 32.4572C53.4575 31.91 53.9666 31.5452 54.9101 31.5452C56.1381 31.5452 56.4376 32.1684 56.5424 32.7764H58.0699C57.9651 31.4236 56.9767 30.2836 54.8951 30.2836C52.9783 30.2836 51.8701 31.302 51.8701 32.5788C51.8701 34.342 53.5174 34.5852 54.7304 34.874C55.8535 35.1476 56.767 35.2236 56.767 36.1964C56.767 36.6828 56.3028 37.23 55.2096 37.23C53.5923 37.23 53.2328 36.5156 53.158 35.6796H51.6305C51.7054 37.3212 52.7686 38.4916 55.2395 38.4916C57.0965 38.4916 58.3544 37.5644 58.3544 36.0748C58.3544 34.2204 56.8269 33.9012 55.4192 33.5668Z" fill="#7EBD41"/>
<path d="M25.619 6.65524C24.0073 6.65524 22.7409 7.70688 22.0214 9.372H21.9638V6.91815H17.3589V21.8749H21.9638V14.9224C21.9638 11.7382 24.4678 10.4236 26.8278 10.8618H26.8854V6.77209C26.3673 6.65524 26.022 6.65524 25.619 6.65524ZM30.6791 5.13619C31.9742 5.13619 32.9815 4.43509 32.9815 3.0621C32.9815 1.71832 31.9742 0.988011 30.6791 0.988011C29.3839 0.988011 28.3766 1.71832 28.3766 3.0621C28.3766 4.43509 29.3839 5.13619 30.6791 5.13619ZM28.3766 6.91815V21.8749H32.9815V6.91815H28.3766ZM43.6384 10.4236V6.91815H41.0769V2.74076H36.472V6.91815H34.4285V10.4236H36.472V16.9672C36.472 20.3267 37.4217 22.1379 40.7891 22.1379C42.0842 22.1379 42.8037 21.9918 43.6384 21.8165V18.311C41.6813 18.311 41.0769 18.311 41.0769 16.6167V10.4236H43.6384ZM53.732 4.52272V1.01722C52.8974 0.841949 52.1779 0.725098 50.8827 0.725098C47.5154 0.725098 46.5656 2.53627 46.5656 5.89571V6.91815H44.3783V10.4236H46.5656V21.8749H51.1705V10.4236H53.732V6.91815H51.1705V6.27547C51.1705 4.52272 51.7749 4.52272 53.732 4.52272ZM61.9053 18.8368C60.2648 18.8368 58.7394 17.7268 58.7394 15.6235H69.3307C69.3307 10.1899 66.7692 6.45075 61.7326 6.45075C57.0413 6.45075 54.1345 9.8394 54.1345 14.3965C54.1345 19.0705 57.0989 22.3423 61.9916 22.3423C65.9922 22.3423 68.2946 20.3559 69.1005 17.347H64.5243C64.2365 18.0773 63.4882 18.8368 61.9053 18.8368ZM61.7326 9.66412C63.4882 9.66412 64.7258 10.7158 64.7258 12.7899H58.7394C58.7394 10.7158 59.977 9.66412 61.7326 9.66412ZM79.5931 11.0663C79.5931 12.3225 77.7223 12.6146 75.8228 12.9943C72.3691 13.6954 70.2105 15.0684 70.2105 18.0481C70.2105 20.5604 71.9374 22.3423 75.0457 22.3423C77.0028 22.3423 78.7296 21.4075 79.6794 20.2975H79.737C79.737 21.3491 80.3126 22.3423 82.3848 22.3423C83.3058 22.3423 84.1404 22.2255 85.0614 21.8749V20.7649C84.4858 20.7649 84.198 20.4435 84.198 19.6548V12.7899C84.198 8.08665 81.8955 6.45075 77.7511 6.45075C72.9447 6.45075 70.9301 8.87539 70.7862 11.7382H75.1033C75.2472 10.3068 76.053 9.66412 77.7223 9.66412C78.9887 9.66412 79.5931 10.1899 79.5931 11.0663ZM76.6574 19.129C75.535 19.129 74.8155 18.6031 74.8155 17.3762C74.8155 16.4414 75.4199 15.6819 77.2331 15.2729C78.2979 15.0392 79.0175 14.8347 79.5931 14.601V16.4122C79.5931 17.8436 78.6433 19.129 76.6574 19.129ZM94.9323 10.4236V6.91815H92.3708V2.74076H87.7659V6.91815H85.7225V10.4236H87.7659V16.9672C87.7659 20.3267 88.7156 22.1379 92.083 22.1379C93.3781 22.1379 94.0976 21.9918 94.9323 21.8165V18.311C92.9752 18.311 92.3708 18.311 92.3708 16.6167V10.4236H94.9323Z" fill="#414141"/>
</g>
<defs>
<clipPath id="clip0_6259_24561">
<rect width="95" height="38" fill="white" transform="translate(0 0.5)"/>
</clipPath>
</defs>
</svg>
